# xmcd
#
# Track frame offsets:
#	213
#	12771
#	30131
#	46361
#	59654
#	71914
#	88018
#	104891
#	126898
#	138049
#	152673
#	171097
#	186978
#
# Disc length: 2748 seconds
# Revision: 0
# Processed by: cddbd v1.5.2PL0 Copyright (c) Steve Scherf et al.
# Submitted via: dBpowerAMP V12.0
#
DISCID=b10aba0d
DTITLE=Blue Moon Rising - One Lonely Shadow
DYEAR=2008
DGENRE=Bluegrass
TTITLE0=Angeline
TTITLE1=The Hanging Tree
TTITLE2=I Grew Up Today
TTITLE3=Blue Moon Rising
TTITLE4=Freight Train
TTITLE5=Stone Cold Loneliness
TTITLE6=Youngstown
TTITLE7=Marie
TTITLE8=Five More Days of Rain
TTITLE9=Revival
TTITLE10=Where There's a Road
TTITLE11=Good Time For Going Home
TTITLE12=I Will Come Back Again
EXTD=
EXTT0=
EXTT1=
EXTT2=
EXTT3=
EXTT4=
EXTT5=
EXTT6=
EXTT7=
EXTT8=
EXTT9=
EXTT10=
EXTT11=
EXTT12=
PLAYORDER=
